<svg xmlns="http://www.w3.org/2000/svg" width="662" height="433" style="
        width:662px;
        height:433px;
        background: white;
        fill: none;
">
        <svg xmlns="http://www.w3.org/2000/svg"><g><defs><pattern id=".9290219640487287" width="10" height="10" patternUnits="userSpaceOnUse"><path d="M 10 0 L 0 0 0 10" fill="none" stroke="lightgray" stroke-width="0.5"/></pattern></defs><rect width="100%" height="100%" fill="url(#.9290219640487287)" stroke="lightgray" stroke-width="0.5"/></g></svg>
        <svg xmlns="http://www.w3.org/2000/svg"><g class="shapes-region" style="stroke: black; fill: none;"><g class="arrow-line"><path class="connection real" stroke-dasharray="" d="  M279.02,81.1 L115.16,366.48" style="stroke: rgb(0, 0, 0); stroke-width: 1; fill: none;"/><g stroke="rgba(0,0,0,1)" fill="rgba(0,0,0,1)" transform="matrix(-0.49803376536663707,0.8671576376615324,-0.8671576376615324,-0.49803376536663707,115.15668303594532,366.4775516693906)" style="stroke: rgb(0, 0, 0); fill: rgb(0, 0, 0); stroke-width: 1;"><circle cx="0" cy="0" r="3.35"/></g><g stroke="rgba(0,0,0,1)" fill="rgba(0,0,0,1)" transform="matrix(-0.49803376536663707,0.8671576376615324,-0.8671576376615324,-0.49803376536663707,279.0246466499302,81.1012387047059)" style="stroke: rgb(0, 0, 0); fill: rgb(0, 0, 0); stroke-width: 1;"><circle cx="0" cy="0" r="3.35"/></g></g><g class="arrow-line"><path class="connection real" stroke-dasharray="" d="  M544.19,239.33 L185.5,243" style="stroke: rgb(0, 0, 0); stroke-width: 1; fill: none;"/><g stroke="rgba(0,0,0,1)" fill="rgba(0,0,0,1)" transform="matrix(-0.9999469818065809,0.01029726060218897,-0.01029726060218897,-0.9999469818065809,185.5,242.99999999999997)" style="stroke: rgb(0, 0, 0); fill: rgb(0, 0, 0); stroke-width: 1;"><circle cx="0" cy="0" r="3.35"/></g><g stroke="rgba(0,0,0,1)" fill="rgba(0,0,0,1)" transform="matrix(-0.9999469818065809,0.01029726060218897,-0.01029726060218897,-0.9999469818065809,544.1928059525604,239.3296894574024)" style="stroke: rgb(0, 0, 0); fill: rgb(0, 0, 0); stroke-width: 1;"><circle cx="0" cy="0" r="3.35"/></g></g><g class="arrow-line"><path class="connection real" stroke-dasharray="" d="  M279.02,81.1 L544.19,239.33" style="stroke: rgb(0, 0, 0); stroke-width: 1; fill: none;"/><g stroke="rgba(0,0,0,1)" fill="rgba(0,0,0,1)" transform="matrix(0.8587811079253985,0.5123426672359283,-0.5123426672359283,0.8587811079253985,544.1928059525605,239.32968945740237)" style="stroke: rgb(0, 0, 0); fill: rgb(0, 0, 0); stroke-width: 1;"><circle cx="0" cy="0" r="3.35"/></g><g stroke="rgba(0,0,0,1)" fill="rgba(0,0,0,1)" transform="matrix(0.8587811079253985,0.5123426672359283,-0.5123426672359283,0.8587811079253985,279.0246466499302,81.1012387047059)" style="stroke: rgb(0, 0, 0); fill: rgb(0, 0, 0); stroke-width: 1;"><circle cx="0" cy="0" r="3.35"/></g></g><g class="arrow-line"><path class="connection real" stroke-dasharray="" d="  M329.67,302.9" style="stroke: rgb(0, 0, 0); stroke-width: 1; fill: none;"/></g><g class="arrow-line"><path class="connection real" stroke-dasharray="" d="  M544.19,239.33 L115.16,366.48" style="stroke: rgb(0, 0, 0); stroke-width: 1; fill: none;"/><g stroke="rgba(0,0,0,1)" fill="rgba(0,0,0,1)" transform="matrix(-0.9587701502358723,0.2841826859903378,-0.2841826859903378,-0.9587701502358723,115.15668303594532,366.4775516693906)" style="stroke: rgb(0, 0, 0); fill: rgb(0, 0, 0); stroke-width: 1;"><circle cx="0" cy="0" r="3.35"/></g><g stroke="rgba(0,0,0,1)" fill="rgba(0,0,0,1)" transform="matrix(-0.9587701502358723,0.2841826859903378,-0.2841826859903378,-0.9587701502358723,544.1928059525604,239.32968945740237)" style="stroke: rgb(0, 0, 0); fill: rgb(0, 0, 0); stroke-width: 1;"><circle cx="0" cy="0" r="3.35"/></g></g><g class="arrow-line"><path class="connection real" stroke-dasharray="" d="  M279.02,81.1 L329.67,302.9" style="stroke: rgb(0, 0, 0); stroke-width: 1; fill: none;"/><g stroke="rgba(0,0,0,1)" fill="rgba(0,0,0,1)" transform="matrix(0.2225695499711607,0.974916814618373,-0.974916814618373,0.2225695499711607,329.674744494253,302.9036205633965)" style="stroke: rgb(0, 0, 0); fill: rgb(0, 0, 0); stroke-width: 1;"><circle cx="0" cy="0" r="3.35"/></g><g stroke="rgba(0,0,0,1)" fill="rgba(0,0,0,1)" transform="matrix(0.2225695499711607,0.974916814618373,-0.974916814618373,0.2225695499711607,279.0246466499302,81.1012387047059)" style="stroke: rgb(0, 0, 0); fill: rgb(0, 0, 0); stroke-width: 1;"><circle cx="0" cy="0" r="3.35"/></g></g><g class="arrow-line"><path class="connection real" stroke-dasharray="" d="  M428.63,171 L115.16,366.48" style="stroke: rgb(0, 0, 0); stroke-width: 1; fill: none;"/><g stroke="rgba(0,0,0,1)" fill="rgba(0,0,0,1)" transform="matrix(-0.8485102149815036,0.5291790009741907,-0.5291790009741907,-0.8485102149815036,115.15668303594532,366.47755166939066)" style="stroke: rgb(0, 0, 0); fill: rgb(0, 0, 0); stroke-width: 1;"><circle cx="0" cy="0" r="3.35"/></g><g stroke="rgba(0,0,0,1)" fill="rgba(0,0,0,1)" transform="matrix(-0.8485102149815036,0.5291790009741907,-0.5291790009741907,-0.8485102149815036,428.6293126211304,171.00382187501276)" style="stroke: rgb(0, 0, 0); fill: rgb(0, 0, 0); stroke-width: 1;"><circle cx="0" cy="0" r="3.35"/></g></g><g class="intersections-group"><g style="stroke: rgb(0, 0, 0); stroke-width: 1; fill: none;"/></g></g><g/><g/><!-- react-empty: 3964 --></svg>
        <svg xmlns="http://www.w3.org/2000/svg" width="660" height="431" style="width:660px;height:431px;font-family:Asana-Math, Asana;background:white;"><g><g><g style="transform:matrix(1,0,0,1,574.984375,242.8125);"><path d="M45 284C45 90 152 -18 343 -18C439 -18 510 5 600 67L610 103L600 110C506 53 454 35 376 35C219 35 133 131 133 309C133 447 190 653 418 653C489 653 541 639 597 603L597 519L624 519C629 576 637 619 651 665C575 694 518 706 456 706C276 706 45 578 45 284Z" stroke="rgb(0, 0, 0)" stroke-width="8" fill="rgb(0, 0, 0)" style="transform:matrix(0.017,0,0,-0.017,0,0);"></path></g></g></g><g><g><g style="transform:matrix(1,0,0,1,260.921875,56.046875);"><path d="M567 55C567 39 552 30 524 28L480 25L480 -3C582 0 582 0 602 0C622 0 622 0 724 -3L724 25L698 28C651 35 650 35 642 80L555 705L509 705L136 112C100 56 82 40 48 32L28 27L28 -3C120 0 120 0 140 0C159 0 161 0 247 -3L247 25L195 28C179 29 164 38 164 47C164 55 171 69 190 102L292 277L538 277L563 89L563 86C563 84 567 69 567 55ZM496 601L533 313L317 313Z" stroke="rgb(0, 0, 0)" stroke-width="8" fill="rgb(0, 0, 0)" style="transform:matrix(0.017,0,0,-0.017,0,0);"></path></g></g></g><g><g><g style="transform:matrix(1,0,0,1,81.296875,389.390625);"><path d="M543 227C543 337 459 353 377 365C434 385 459 397 490 425C536 464 559 511 559 562C559 644 501 692 401 692C399 692 389 692 374 691L311 690C299 689 263 689 251 689C232 689 201 690 152 691L100 692L97 664L150 662C174 661 185 653 185 635C185 621 181 589 176 559L89 55C85 37 73 30 31 23L26 -3L63 -2C90 0 105 0 117 0C128 0 154 -1 180 -2L217 -3L237 -4C256 -5 269 -6 277 -6C392 -6 543 87 543 227ZM166 41L217 340L302 340C405 340 455 298 455 211C455 108 382 34 282 34C228 34 207 38 166 41ZM352 655C433 655 473 619 473 544C473 439 399 376 275 376L223 376L272 650C288 650 329 655 352 655Z" stroke="rgb(0, 0, 0)" stroke-width="8" fill="rgb(0, 0, 0)" style="transform:matrix(0.017,0,0,-0.017,0,0);"></path></g></g></g><g><g><g style="transform:matrix(1,0,0,1,715.78125,28);"><path d="M263 689C108 689 29 566 29 324C29 207 50 106 85 57C120 8 176 -20 238 -20C389 -20 465 110 465 366C465 585 400 689 263 689ZM245 654C342 654 381 556 381 316C381 103 343 15 251 15C154 15 113 116 113 360C113 571 150 654 245 654Z" stroke="rgb(0, 0, 0)" stroke-width="8" fill="rgb(0, 0, 0)" style="transform:matrix(0.017,0,0,-0.017,0,0);"></path></g></g></g><g><g><g style="transform:matrix(1,0,0,1,695.78125,78);"><path d="M263 689C108 689 29 566 29 324C29 207 50 106 85 57C120 8 176 -20 238 -20C389 -20 465 110 465 366C465 585 400 689 263 689ZM245 654C342 654 381 556 381 316C381 103 343 15 251 15C154 15 113 116 113 360C113 571 150 654 245 654Z" stroke="rgb(0, 0, 0)" stroke-width="8" fill="rgb(0, 0, 0)" style="transform:matrix(0.017,0,0,-0.017,0,0);"></path></g></g></g><g><g><g style="transform:matrix(1,0,0,1,335.5234375,333.296875);"><path d="M567 55C567 39 552 30 524 28L480 25L480 -3C582 0 582 0 602 0C622 0 622 0 724 -3L724 25L698 28C651 35 650 35 642 80L555 705L509 705L136 112C100 56 82 40 48 32L28 27L28 -3C120 0 120 0 140 0C159 0 161 0 247 -3L247 25L195 28C179 29 164 38 164 47C164 55 171 69 190 102L292 277L538 277L563 89L563 86C563 84 567 69 567 55ZM496 601L533 313L317 313ZM855 470C912 543 950 610 984 696L971 709C935 697 925 694 874 679C868 599 844 533 796 456L811 446Z" stroke="rgb(0, 0, 0)" stroke-width="8" fill="rgb(0, 0, 0)" style="transform:matrix(0.017,0,0,-0.017,0,0);"></path></g></g></g><g><g><g style="transform:matrix(1,0,0,1,147.2578125,233.5625);"><path d="M45 284C45 90 152 -18 343 -18C439 -18 510 5 600 67L610 103L600 110C506 53 454 35 376 35C219 35 133 131 133 309C133 447 190 653 418 653C489 653 541 639 597 603L597 519L624 519C629 576 637 619 651 665C575 694 518 706 456 706C276 706 45 578 45 284ZM791 470C848 543 886 610 920 696L907 709C871 697 861 694 810 679C804 599 780 533 732 456L747 446Z" stroke="rgb(0, 0, 0)" stroke-width="8" fill="rgb(0, 0, 0)" style="transform:matrix(0.017,0,0,-0.017,0,0);"></path></g></g></g><g><g><g style="transform:matrix(1,0,0,1,448.75,156.453125);"><path d="M543 227C543 337 459 353 377 365C434 385 459 397 490 425C536 464 559 511 559 562C559 644 501 692 401 692C399 692 389 692 374 691L311 690C299 689 263 689 251 689C232 689 201 690 152 691L100 692L97 664L150 662C174 661 185 653 185 635C185 621 181 589 176 559L89 55C85 37 73 30 31 23L26 -3L63 -2C90 0 105 0 117 0C128 0 154 -1 180 -2L217 -3L237 -4C256 -5 269 -6 277 -6C392 -6 543 87 543 227ZM166 41L217 340L302 340C405 340 455 298 455 211C455 108 382 34 282 34C228 34 207 38 166 41ZM352 655C433 655 473 619 473 544C473 439 399 376 275 376L223 376L272 650C288 650 329 655 352 655ZM714 470C771 543 809 610 843 696L830 709C794 697 784 694 733 679C727 599 703 533 655 456L670 446Z" stroke="rgb(0, 0, 0)" stroke-width="8" fill="rgb(0, 0, 0)" style="transform:matrix(0.017,0,0,-0.017,0,0);"></path></g></g></g></svg>
</svg>
